<mxfile host="Electron" modified="2024-07-09T11:25:51.358Z" agent="Mozilla/5.0 (Windows NT 10.0; Win64; x64) AppleWebKit/537.36 (KHTML, like Gecko) draw.io/22.0.2 Chrome/114.0.5735.289 Electron/25.8.4 Safari/537.36" etag="KsnuKium9r1IkzW3FaJ4" version="22.0.2" type="device">
  <diagram name="ページ1" id="NKPZZOQx5-XQ6p6UbQd2">
    <mxGraphModel dx="1016" dy="654" grid="1" gridSize="10" guides="1" tooltips="1" connect="1" arrows="1" fold="1" page="1" pageScale="1" pageWidth="827" pageHeight="1169" math="0" shadow="0">
      <root>
        <mxCell id="0" />
        <mxCell id="1" parent="0" />
        <mxCell id="0mSqBatTHCEcBpTO_uF6-18" value="lesson12-1" style="rounded=0;whiteSpace=wrap;html=1;" parent="1" vertex="1">
          <mxGeometry x="10" y="240" width="120" height="60" as="geometry" />
        </mxCell>
        <mxCell id="MJv23wk7wX1O_h6k998h-2" value="&lt;font color=&quot;#ffffff&quot;&gt;アイコン&lt;/font&gt;" style="rounded=0;whiteSpace=wrap;html=1;align=left;fillColor=#333333;" vertex="1" parent="1">
          <mxGeometry x="70" y="350" width="200" height="90" as="geometry" />
        </mxCell>
        <mxCell id="MJv23wk7wX1O_h6k998h-3" value="ステレオタイプ" style="rounded=0;whiteSpace=wrap;html=1;align=left;" vertex="1" parent="1">
          <mxGeometry x="70" y="440" width="200" height="40" as="geometry" />
        </mxCell>
        <mxCell id="MJv23wk7wX1O_h6k998h-4" value="説明" style="rounded=0;whiteSpace=wrap;html=1;align=left;" vertex="1" parent="1">
          <mxGeometry x="70" y="480" width="200" height="40" as="geometry" />
        </mxCell>
        <mxCell id="MJv23wk7wX1O_h6k998h-5" value="ユースケース内のクラス数" style="rounded=0;whiteSpace=wrap;html=1;align=left;" vertex="1" parent="1">
          <mxGeometry x="70" y="520" width="200" height="40" as="geometry" />
        </mxCell>
        <mxCell id="MJv23wk7wX1O_h6k998h-6" value="" style="rounded=0;whiteSpace=wrap;html=1;" vertex="1" parent="1">
          <mxGeometry x="270" y="350" width="230" height="90" as="geometry" />
        </mxCell>
        <mxCell id="MJv23wk7wX1O_h6k998h-7" value="" style="rounded=0;whiteSpace=wrap;html=1;" vertex="1" parent="1">
          <mxGeometry x="500" y="350" width="200" height="90" as="geometry" />
        </mxCell>
        <mxCell id="MJv23wk7wX1O_h6k998h-8" value="" style="rounded=0;whiteSpace=wrap;html=1;" vertex="1" parent="1">
          <mxGeometry x="700" y="350" width="200" height="90" as="geometry" />
        </mxCell>
        <mxCell id="MJv23wk7wX1O_h6k998h-9" value="②&amp;lt;&amp;lt;boundary&amp;gt;&amp;gt;" style="rounded=0;whiteSpace=wrap;html=1;" vertex="1" parent="1">
          <mxGeometry x="270" y="440" width="230" height="40" as="geometry" />
        </mxCell>
        <mxCell id="MJv23wk7wX1O_h6k998h-10" value="⑤アクターとインターフェースをとる" style="rounded=0;whiteSpace=wrap;html=1;" vertex="1" parent="1">
          <mxGeometry x="270" y="480" width="230" height="40" as="geometry" />
        </mxCell>
        <mxCell id="MJv23wk7wX1O_h6k998h-11" value="⑧アクターとユースケースのペアで&lt;br&gt;原則1つ" style="rounded=0;whiteSpace=wrap;html=1;" vertex="1" parent="1">
          <mxGeometry x="270" y="520" width="230" height="40" as="geometry" />
        </mxCell>
        <mxCell id="MJv23wk7wX1O_h6k998h-12" value="③&amp;lt;&amp;lt;control&amp;gt;&amp;gt;" style="rounded=0;whiteSpace=wrap;html=1;" vertex="1" parent="1">
          <mxGeometry x="500" y="440" width="200" height="40" as="geometry" />
        </mxCell>
        <mxCell id="MJv23wk7wX1O_h6k998h-13" value="⑥ユースケースを制御する" style="rounded=0;whiteSpace=wrap;html=1;" vertex="1" parent="1">
          <mxGeometry x="500" y="480" width="200" height="40" as="geometry" />
        </mxCell>
        <mxCell id="MJv23wk7wX1O_h6k998h-14" value="⑨ユースケースにいくつ必要かは機械的には決められない" style="rounded=0;whiteSpace=wrap;html=1;" vertex="1" parent="1">
          <mxGeometry x="500" y="520" width="200" height="40" as="geometry" />
        </mxCell>
        <mxCell id="MJv23wk7wX1O_h6k998h-15" value="①&amp;lt;&amp;lt;entity&amp;gt;&amp;gt;" style="rounded=0;whiteSpace=wrap;html=1;" vertex="1" parent="1">
          <mxGeometry x="700" y="440" width="200" height="40" as="geometry" />
        </mxCell>
        <mxCell id="MJv23wk7wX1O_h6k998h-16" value="④情報を属性として保持する" style="rounded=0;whiteSpace=wrap;html=1;" vertex="1" parent="1">
          <mxGeometry x="700" y="480" width="200" height="40" as="geometry" />
        </mxCell>
        <mxCell id="MJv23wk7wX1O_h6k998h-17" value="⑦ユースケースに原則1つ" style="rounded=0;whiteSpace=wrap;html=1;" vertex="1" parent="1">
          <mxGeometry x="700" y="520" width="200" height="40" as="geometry" />
        </mxCell>
        <mxCell id="MJv23wk7wX1O_h6k998h-18" value="" style="ellipse;whiteSpace=wrap;html=1;aspect=fixed;" vertex="1" parent="1">
          <mxGeometry x="340" y="370" width="60" height="60" as="geometry" />
        </mxCell>
        <mxCell id="MJv23wk7wX1O_h6k998h-19" value="" style="ellipse;whiteSpace=wrap;html=1;aspect=fixed;" vertex="1" parent="1">
          <mxGeometry x="570" y="365" width="60" height="60" as="geometry" />
        </mxCell>
        <mxCell id="MJv23wk7wX1O_h6k998h-20" value="" style="ellipse;whiteSpace=wrap;html=1;aspect=fixed;" vertex="1" parent="1">
          <mxGeometry x="780" y="365" width="60" height="60" as="geometry" />
        </mxCell>
      </root>
    </mxGraphModel>
  </diagram>
</mxfile>
